HIERARCHY
ROOT Hips
{
	OFFSET 0.000000 83.214638 0.000000
	CHANNELS 6 Xposition Yposition Zposition Xrotation Yrotation Zrotation
	JOINT Pelvis
	{
		OFFSET 0.000000 0.000000 0.000000
		CHANNELS 3 Xrotation Yrotation Zrotation
		JOINT LeftUpLeg
		{
			OFFSET 8.479700 -4.795502 -0.379100
			CHANNELS 3 Xrotation Yrotation Zrotation
			JOINT LeftLeg
			{
				OFFSET 0.024144 -32.555107 0.112900
				CHANNELS 3 Xrotation Yrotation Zrotation
				JOINT LeftFoot
				{
					OFFSET -0.024144 -32.638630 -3.012600
					CHANNELS 3 Xrotation Yrotation Zrotation
					JOINT LeftToeBase
					{
						OFFSET 0.970200 -13.225400 11.864200
						CHANNELS 3 Xrotation Yrotation Zrotation
						End Site
						{
							OFFSET 0.000000 12.319262 0.000000
						}
					}
					JOINT LFootTongue
					{
						OFFSET 1.142400 -1.059800 6.665200
						CHANNELS 3 Xrotation Yrotation Zrotation
						End Site
						{
							OFFSET 0.000000 12.319262 0.000000
						}
					}
				}
				JOINT LeftPantLeg
				{
					OFFSET 0.918482 -16.533964 -2.284700
					CHANNELS 3 Xrotation Yrotation Zrotation
					End Site
					{
						OFFSET 0.350399 24.744368 0.000000
					}
				}
			}
		}
		JOINT RightUpLeg
		{
			OFFSET -8.479700 -4.795502 -0.379100
			CHANNELS 3 Xrotation Yrotation Zrotation
			JOINT RightLeg
			{
				OFFSET -0.023144 -32.555092 0.112900
				CHANNELS 3 Xrotation Yrotation Zrotation
				JOINT RightFoot
				{
					OFFSET 0.023144 -32.638641 -3.012700
					CHANNELS 3 Xrotation Yrotation Zrotation
					JOINT RightToeBase
					{
						OFFSET -0.970200 -13.225400 11.864200
						CHANNELS 3 Xrotation Yrotation Zrotation
						End Site
						{
							OFFSET 0.000000 12.319244 0.000000
						}
					}
					JOINT RFootTongue
					{
						OFFSET -1.142200 -1.059800 6.665200
						CHANNELS 3 Xrotation Yrotation Zrotation
						End Site
						{
							OFFSET 0.000000 12.319243 0.000000
						}
					}
				}
				JOINT RightPantLeg
				{
					OFFSET -0.919482 -16.533978 -2.284800
					CHANNELS 3 Xrotation Yrotation Zrotation
					End Site
					{
						OFFSET -0.350400 24.744419 0.000000
					}
				}
			}
		}
	}
	JOINT Spine
	{
		OFFSET 0.000000 7.722000 1.166200
		CHANNELS 3 Xrotation Yrotation Zrotation
		JOINT Spine1
		{
			OFFSET 0.000000 12.024101 0.248800
			CHANNELS 3 Xrotation Yrotation Zrotation
			JOINT Spine2
			{
				OFFSET 0.000000 11.502998 -0.491200
				CHANNELS 3 Xrotation Yrotation Zrotation
				JOINT Neck
				{
					OFFSET 0.000000 18.430702 -3.123100
					CHANNELS 3 Xrotation Yrotation Zrotation
					JOINT Head
					{
						OFFSET 0.000000 9.051102 1.034000
						CHANNELS 3 Xrotation Yrotation Zrotation
						JOINT HairB
						{
							OFFSET 0.208400 24.786102 24.822300
							CHANNELS 3 Xrotation Yrotation Zrotation
							End Site
							{
								OFFSET 0.000000 32.263779 0.000000
							}
						}
						JOINT HairA
						{
							OFFSET -7.081100 24.428299 23.196600
							CHANNELS 3 Xrotation Yrotation Zrotation
							End Site
							{
								OFFSET 0.000000 32.263779 0.000000
							}
						}
						JOINT Hat
						{
							OFFSET 16.728800 15.048294 -15.439601
							CHANNELS 3 Xrotation Yrotation Zrotation
							End Site
							{
								OFFSET 0.000000 32.263779 0.000000
							}
						}
					}
				}
				JOINT LeftShoulder
				{
					OFFSET 6.197800 13.665199 -4.064700
					CHANNELS 3 Xrotation Yrotation Zrotation
					JOINT LeftArm
					{
						OFFSET 7.778100 -0.187103 -1.709300
						CHANNELS 3 Xrotation Yrotation Zrotation
						JOINT LeftForeArm
						{
							OFFSET 22.049376 0.000000 0.000000
							CHANNELS 3 Xrotation Yrotation Zrotation
							JOINT LeftHand
							{
								OFFSET 23.009392 0.000000 0.000000
								CHANNELS 3 Xrotation Yrotation Zrotation
								JOINT LeftHandThumb1
								{
									OFFSET 3.507191 -2.063065 3.133727
									CHANNELS 3 Xrotation Yrotation Zrotation
									JOINT LeftHandThumb2
									{
										OFFSET 3.101337 -1.790558 1.790558
										CHANNELS 3 Xrotation Yrotation Zrotation
										JOINT LeftHandThumb3
										{
											OFFSET 3.058640 -1.765907 1.765906
											CHANNELS 3 Xrotation Yrotation Zrotation
											End Site
											{
												OFFSET -0.415260 3.926476 -0.049563
											}
										}
									}
								}
								JOINT LeftHandIndex1
								{
									OFFSET 11.334419 -0.901459 3.706815
									CHANNELS 3 Xrotation Yrotation Zrotation
									JOINT LeftHandIndex2
									{
										OFFSET 3.283112 0.000000 0.000000
										CHANNELS 3 Xrotation Yrotation Zrotation
										JOINT LeftHandIndex3
										{
											OFFSET 3.323853 0.000000 0.000000
											CHANNELS 3 Xrotation Yrotation Zrotation
											End Site
											{
												OFFSET -1.135597 3.097809 0.402452
											}
										}
									}
								}
								JOINT LeftHandMiddle1
								{
									OFFSET 11.335861 0.000000 0.000000
									CHANNELS 3 Xrotation Yrotation Zrotation
									JOINT LeftHandMiddle2
									{
										OFFSET 3.410492 0.000000 0.000000
										CHANNELS 3 Xrotation Yrotation Zrotation
										JOINT LeftHandMiddle3
										{
											OFFSET 3.312172 0.000000 0.000000
											CHANNELS 3 Xrotation Yrotation Zrotation
											End Site
											{
												OFFSET -1.150200 3.080154 0.400270
											}
										}
									}
								}
								JOINT LeftHandRing1
								{
									OFFSET 11.514786 -0.013176 -3.003090
									CHANNELS 3 Xrotation Yrotation Zrotation
									JOINT LeftHandRing2
									{
										OFFSET 3.053307 0.000000 0.000000
										CHANNELS 3 Xrotation Yrotation Zrotation
										JOINT LeftHandRing3
										{
											OFFSET 3.295807 0.000000 0.000000
											CHANNELS 3 Xrotation Yrotation Zrotation
											End Site
											{
												OFFSET -1.281006 3.013344 0.375733
											}
										}
									}
								}
								JOINT LeftHandPinky1
								{
									OFFSET 10.518692 -0.960396 -5.730441
									CHANNELS 3 Xrotation Yrotation Zrotation
									JOINT LeftHandPinky2
									{
										OFFSET 2.861649 0.000000 0.000000
										CHANNELS 3 Xrotation Yrotation Zrotation
										JOINT LeftHandPinky3
										{
											OFFSET 2.863380 0.000000 0.000000
											CHANNELS 3 Xrotation Yrotation Zrotation
											End Site
											{
												OFFSET -0.843597 2.711159 0.369971
											}
										}
									}
								}
							}
							JOINT LSleeve
							{
								OFFSET 6.676277 -0.344902 -1.011730
								CHANNELS 3 Xrotation Yrotation Zrotation
								End Site
								{
									OFFSET 0.000000 14.885353 0.000000
								}
							}
						}
					}
				}
				JOINT RightShoulder
				{
					OFFSET -6.197800 13.665199 -4.064700
					CHANNELS 3 Xrotation Yrotation Zrotation
					JOINT RightArm
					{
						OFFSET -7.778100 -0.187103 -1.709300
						CHANNELS 3 Xrotation Yrotation Zrotation
						JOINT RightForeArm
						{
							OFFSET -22.049376 0.000000 0.000000
							CHANNELS 3 Xrotation Yrotation Zrotation
							JOINT RightHand
							{
								OFFSET -23.009392 0.000000 0.000000
								CHANNELS 3 Xrotation Yrotation Zrotation
								JOINT RightHandThumb1
								{
									OFFSET -3.507191 -2.063065 3.133727
									CHANNELS 3 Xrotation Yrotation Zrotation
									JOINT RightHandThumb2
									{
										OFFSET -3.101337 -1.790558 1.790558
										CHANNELS 3 Xrotation Yrotation Zrotation
										JOINT RightHandThumb3
										{
											OFFSET -3.058640 -1.765907 1.765906
											CHANNELS 3 Xrotation Yrotation Zrotation
											End Site
											{
												OFFSET 0.415260 3.926476 -0.049563
											}
										}
									}
								}
								JOINT RightHandIndex1
								{
									OFFSET -11.334419 -0.901459 3.706815
									CHANNELS 3 Xrotation Yrotation Zrotation
									JOINT RightHandIndex2
									{
										OFFSET -3.283112 0.000000 0.000000
										CHANNELS 3 Xrotation Yrotation Zrotation
										JOINT RightHandIndex3
										{
											OFFSET -3.323853 0.000000 0.000000
											CHANNELS 3 Xrotation Yrotation Zrotation
											End Site
											{
												OFFSET 1.135597 3.097809 0.402452
											}
										}
									}
								}
								JOINT RightHandMiddle1
								{
									OFFSET -11.335861 0.000000 0.000000
									CHANNELS 3 Xrotation Yrotation Zrotation
									JOINT RightHandMiddle2
									{
										OFFSET -3.410492 0.000000 0.000000
										CHANNELS 3 Xrotation Yrotation Zrotation
										JOINT RightHandMiddle3
										{
											OFFSET -3.312172 0.000000 0.000000
											CHANNELS 3 Xrotation Yrotation Zrotation
											End Site
											{
												OFFSET 1.150200 3.080154 0.400270
											}
										}
									}
								}
								JOINT RightHandRing1
								{
									OFFSET -11.514786 -0.013176 -3.003090
									CHANNELS 3 Xrotation Yrotation Zrotation
									JOINT RightHandRing2
									{
										OFFSET -3.053307 0.000000 0.000000
										CHANNELS 3 Xrotation Yrotation Zrotation
										JOINT RightHandRing3
										{
											OFFSET -3.295807 0.000000 0.000000
											CHANNELS 3 Xrotation Yrotation Zrotation
											End Site
											{
												OFFSET 1.281006 3.013344 0.375733
											}
										}
									}
								}
								JOINT RightHandPinky1
								{
									OFFSET -10.518692 -0.960396 -5.730441
									CHANNELS 3 Xrotation Yrotation Zrotation
									JOINT RightHandPinky2
									{
										OFFSET -2.861649 0.000000 0.000000
										CHANNELS 3 Xrotation Yrotation Zrotation
										JOINT RightHandPinky3
										{
											OFFSET -2.863380 0.000000 0.000000
											CHANNELS 3 Xrotation Yrotation Zrotation
											End Site
											{
												OFFSET 0.843597 2.711159 0.369971
											}
										}
									}
								}
							}
							JOINT RSleeve
							{
								OFFSET -6.676277 -0.344902 -1.011730
								CHANNELS 3 Xrotation Yrotation Zrotation
								End Site
								{
									OFFSET 0.000000 14.885353 0.000000
								}
							}
						}
					}
				}
				JOINT Backpack
				{
					OFFSET 0.000000 -2.471497 36.677502
					CHANNELS 3 Xrotation Yrotation Zrotation
					End Site
					{
						OFFSET 0.000000 20.427315 0.000000
					}
				}
				JOINT Hood
				{
					OFFSET 0.000000 18.754097 -10.431000
					CHANNELS 3 Xrotation Yrotation Zrotation
					JOINT Hood1
					{
						OFFSET 0.000000 -5.011002 -7.685901
						CHANNELS 3 Xrotation Yrotation Zrotation
						End Site
						{
							OFFSET 0.000000 9.175140 0.000000
						}
					}
				}
				JOINT LHoodieString
				{
					OFFSET 5.250500 16.397697 3.089900
					CHANNELS 3 Xrotation Yrotation Zrotation
					JOINT LHoodieString1
					{
						OFFSET 0.257700 -6.364304 3.694600
						CHANNELS 3 Xrotation Yrotation Zrotation
						JOINT LHoodieString2
						{
							OFFSET 0.000000 -9.643799 2.679100
							CHANNELS 3 Xrotation Yrotation Zrotation
							End Site
							{
								OFFSET 0.000000 10.009018 0.000000
							}
						}
					}
				}
				JOINT RHoodieString
				{
					OFFSET -5.250500 16.397697 3.089900
					CHANNELS 3 Xrotation Yrotation Zrotation
					JOINT RHoodieString1
					{
						OFFSET -0.257700 -6.364304 3.694600
						CHANNELS 3 Xrotation Yrotation Zrotation
						JOINT RHoodieString2
						{
							OFFSET 0.000000 -9.643799 2.679100
							CHANNELS 3 Xrotation Yrotation Zrotation
							End Site
							{
								OFFSET 0.000000 10.009018 0.000000
							}
						}
					}
				}
			}
			JOINT LBackpack_Strap
			{
				OFFSET 15.223200 -7.719803 -6.610900
				CHANNELS 3 Xrotation Yrotation Zrotation
				End Site
				{
					OFFSET 0.000000 16.040596 0.000000
				}
			}
			JOINT RBackpack_Strap
			{
				OFFSET -15.223000 -7.719803 -6.610900
				CHANNELS 3 Xrotation Yrotation Zrotation
				End Site
				{
					OFFSET 0.000000 16.040596 0.000000
				}
			}
		}
	}
	JOINT BoyFacialAnim_Joint
	{
		OFFSET 1.000000 -82.208099 -1.550900
		CHANNELS 3 Xrotation Yrotation Zrotation
		End Site
		{
			OFFSET 0.000000 30.012791 0.000000
		}
	}
}
MOTION
Frames: 4
Frame Time: 0.033333
0.087040 70.644623 -0.055619 15.530194 -53.499936 11.786629 -0.000000 0.000001 0.000000 -67.706224 24.471668 43.393162 44.628494 -14.521143 4.254982 4.617743 0.075099 -10.905168 -0.000000 -0.000002 -0.000000 -0.000000 -0.000002 -0.000000 -0.000000 0.000000 -0.000000 -34.731317 -19.142394 -36.637319 39.981718 -1.062992 -5.287038 -10.049155 -4.401636 31.423593 0.000000 0.000000 -0.000000 0.000000 0.000000 -0.000000 -0.000001 -0.000001 -0.000002 7.412050 3.538675 -3.157890 1.209157 1.420684 2.325055 0.209271 1.298855 1.049732 -1.853180 9.789615 -1.571397 -3.711789 23.672835 -4.981277 0.000001 -0.000001 0.000000 0.000001 -0.000001 0.000000 0.000001 -0.000001 0.000000 -2.416916 -9.914494 -4.105197 -4.668955 -14.995277 -46.826950 -96.668118 -58.172735 -94.771914 0.026996 -0.377096 -3.261874 4.763622 -0.867812 -14.444573 15.737645 12.652328 8.799090 -0.000001 0.000001 -0.000000 -3.610975 -7.817581 -81.262715 0.005167 -4.388517 -67.459033 0.000001 0.000000 -0.000004 -5.483694 2.419557 -86.651031 -0.068396 -4.897277 -76.605517 0.000002 -0.000003 0.000001 -4.480796 3.914203 -90.412464 -1.097904 -0.674517 -62.310743 -0.000001 -0.000000 0.000001 -8.868670 8.263664 -85.753872 -0.047916 -0.066868 -74.105626 -0.000001 -0.000001 -0.000004 0.000000 -0.000000 0.000001 -7.387849 -19.317462 2.804058 3.089111 2.300729 51.805192 -16.213553 73.879417 16.738181 -2.716582 27.655207 10.524496 24.918349 -21.323355 30.343020 9.041920 8.262072 -18.001817 0.000000 0.000003 0.000002 -0.070694 -3.035244 61.424164 0.006468 4.395135 66.609180 -0.000003 -0.000000 0.000004 -1.235414 -0.119477 68.274284 -0.077305 4.902844 84.501891 0.000004 -0.000001 0.000001 0.883179 -4.613497 79.192970 -0.717792 1.136478 73.255760 -0.000002 0.000000 0.000000 -3.944555 0.099995 86.764801 -0.029792 0.060130 54.415157 -0.000001 0.000000 0.000000 0.000003 -0.000001 -0.000000 -0.000000 -0.000000 -0.000001 -0.000000 -0.000000 -0.000001 -0.000000 -0.000000 -0.000001 -0.000000 -0.000000 -0.000001 -0.000000 -0.000000 -0.000001 -0.000000 0.000001 -0.000001 -0.000000 -0.000000 -0.000001 -0.000000 -0.000000 -0.000001 -0.000000 0.000001 -0.000001 0.000001 0.000001 -0.000000 0.000001 0.000001 -0.000000 -0.000000 0.000001 0.000000 
0.027383 70.584579 0.016334 17.723900 -53.332907 13.582839 0.000001 0.000000 -0.000000 -69.491724 24.803813 43.877224 44.391534 -9.380648 4.641251 4.561819 -5.539311 -10.736936 0.000000 0.000000 0.000000 0.000000 0.000000 0.000000 0.000000 0.000000 -0.000000 -35.813192 -18.614627 -36.354385 40.078911 -1.232949 -5.302940 -10.029368 -4.709009 31.548562 -0.000000 0.000000 -0.000000 -0.000000 0.000000 -0.000000 -0.000000 -0.000000 -0.000002 6.722668 2.558964 -2.583820 2.024237 0.324421 2.180620 1.155443 0.220486 1.098968 -1.595340 9.826685 -1.494837 -3.971855 23.727490 -4.983364 0.000001 0.000001 0.000000 0.000001 0.000001 0.000000 0.000001 0.000001 0.000000 -2.060457 -9.472634 -4.886378 -3.665725 -12.124411 -41.026156 -83.262465 -63.549432 -80.759931 -0.184091 -2.641477 -2.106735 4.453982 -0.920789 -14.019075 15.122495 12.886181 8.613104 -0.000004 -0.000000 -0.000000 -3.611276 -7.817646 -79.612569 0.004826 -4.388621 -66.452987 -0.000000 0.000001 -0.000003 -5.481577 2.419692 -85.246553 -0.067211 -4.896963 -75.579499 0.000002 -0.000002 -0.000004 -4.479330 3.914190 -89.152984 -1.096340 -0.675201 -61.789265 0.000002 -0.000001 0.000001 -8.800565 8.042247 -84.701429 -0.047090 -0.066655 -73.399979 -0.000000 0.000001 -0.000004 -0.000001 0.000002 0.000002 -6.259643 -17.356501 3.552330 1.019855 -0.788915 47.626742 -13.357751 70.304530 13.078882 -2.798180 27.494105 10.260095 24.918355 -21.323355 30.343023 9.041918 8.262076 -18.001819 -0.000001 0.000004 -0.000002 -0.070691 -3.035247 61.424158 0.006468 4.395133 66.609180 -0.000003 0.000000 0.000002 -1.235409 -0.119480 68.274284 -0.077308 4.902846 84.501891 -0.000003 0.000000 -0.000000 0.883186 -4.613498 79.192970 -0.717789 1.136479 73.255760 0.000004 0.000000 0.000002 -3.944548 0.099994 86.764795 -0.029793 0.060132 54.415168 0.000001 -0.000001 -0.000003 0.000000 -0.000000 0.000001 -0.000000 0.000002 0.000000 -0.000000 0.000002 0.000000 -0.000000 0.000002 0.000000 -0.000000 0.000002 0.000000 -0.000000 0.000002 -0.000001 -0.000001 0.000002 -0.000001 -0.000000 0.000002 0.000000 -0.000000 0.000002 -0.000001 -0.000001 0.000002 -0.000001 -0.000001 0.000003 -0.000001 -0.000001 0.000003 -0.000001 0.000001 0.000000 -0.000000 
0.047857 70.473785 0.181845 19.951934 -53.412417 15.407519 -0.000000 0.000000 0.000000 -72.687611 26.082232 45.790459 44.758691 -6.174698 4.994814 4.332628 -10.561818 -9.889135 -0.000000 -0.000000 -0.000000 -0.000000 -0.000000 0.000000 0.000000 -0.000001 -0.000001 -36.560203 -17.444071 -35.740577 40.110774 -1.618260 -5.309494 -9.845649 -5.234126 31.864403 -0.000000 -0.000000 0.000000 -0.000000 -0.000000 0.000000 -0.000001 0.000001 0.000002 6.030865 1.508964 -1.997961 2.951671 -0.842547 1.972695 2.232443 -0.926966 1.099150 -0.914539 9.909382 -1.283233 -4.689173 23.845340 -4.970475 0.000000 0.000001 -0.000001 0.000000 0.000001 -0.000001 0.000000 0.000001 -0.000001 -1.669284 -9.092122 -5.864133 -2.293291 -9.385531 -34.802450 -63.103209 -66.747429 -60.686463 -0.324854 -4.915233 -0.932645 3.595616 -1.065386 -12.861775 13.436616 13.537173 8.115562 -0.000003 0.000002 -0.000001 -3.612166 -7.817781 -75.087937 0.003988 -4.388922 -63.694431 -0.000001 0.000000 -0.000002 -5.475907 2.420365 -81.395542 -0.064034 -4.896020 -72.766233 -0.000000 -0.000001 -0.000002 -4.475424 3.914345 -85.699517 -1.093797 -0.673783 -60.359352 -0.000004 0.000000 -0.000004 -8.572145 7.448860 -81.821049 -0.044841 -0.065969 -71.465068 0.000001 0.000003 -0.000005 0.000001 -0.000001 0.000002 -5.034349 -15.140760 4.488766 -1.469881 -4.107305 43.132457 -11.491810 66.880782 10.302409 -2.421010 27.095096 9.244681 24.918354 -21.323357 30.343027 9.041919 8.262074 -18.001821 -0.000001 0.000000 -0.000002 -0.070688 -3.035250 61.424158 0.006467 4.395138 66.609180 -0.000002 -0.000003 0.000003 -1.235412 -0.119480 68.274284 -0.077305 4.902846 84.501891 -0.000001 0.000002 0.000000 0.883184 -4.613498 79.192970 -0.717792 1.136475 73.255760 -0.000000 0.000001 0.000001 -3.944550 0.099993 86.764795 -0.029793 0.060130 54.415161 0.000002 -0.000001 -0.000002 0.000000 0.000000 0.000001 0.000002 -0.000002 -0.000000 0.000002 -0.000002 -0.000000 0.000002 -0.000002 -0.000000 0.000002 -0.000002 -0.000000 0.000002 -0.000002 -0.000000 0.000000 -0.000002 0.000001 0.000002 -0.000002 -0.000000 0.000002 -0.000002 -0.000000 0.000000 -0.000002 0.000001 0.000001 -0.000001 0.000000 0.000001 -0.000001 0.000000 -0.000000 0.000000 0.000000 
0.175467 70.336678 0.486586 22.208777 -53.542116 17.267195 -0.000000 -0.000002 0.000001 -76.811898 27.634213 48.598234 44.338754 0.773374 5.652253 4.564439 -17.040415 -8.754036 -0.000000 -0.000000 -0.000000 -0.000000 -0.000000 -0.000000 -0.000000 -0.000000 0.000000 -36.696202 -15.483781 -34.820205 39.847303 -2.648603 -5.154314 -9.364344 -5.906451 32.498228 0.000000 -0.000000 0.000000 0.000000 -0.000000 0.000000 0.000000 -0.000000 -0.000005 5.354059 0.437217 -1.417483 3.897866 -2.027439 1.749329 3.339571 -2.091695 1.087352 0.059828 9.994248 -0.965330 -5.769402 23.955509 -4.939532 -0.000001 -0.000001 0.000000 -0.000001 -0.000001 0.000000 -0.000001 -0.000001 0.000000 -1.256593 -8.749125 -6.923881 -0.634711 -6.466861 -28.510456 -39.811226 -66.376461 -38.218477 -0.368167 -7.195393 0.226322 2.309638 -1.300938 -11.142841 10.919726 14.535672 7.406869 -0.000001 -0.000005 -0.000001 -3.613433 -7.818138 -68.327580 0.002705 -4.389489 -59.572842 -0.000002 0.000001 -0.000003 -5.467507 2.422073 -75.641674 -0.059376 -4.894295 -68.562907 -0.000001 -0.000001 -0.000002 -4.469568 3.915001 -80.539630 -1.090090 -0.671585 -58.222909 0.000001 0.000000 -0.000000 -8.120172 6.607641 -77.530235 -0.041535 -0.064894 -68.574075 -0.000000 -0.000000 0.000001 0.000001 -0.000006 0.000001 -3.821284 -12.798756 5.421274 -4.235711 -7.450833 38.329328 -10.153641 63.517119 7.909489 -2.061941 26.359869 7.792273 24.918352 -21.323354 30.343027 9.041918 8.262072 -18.001821 0.000000 -0.000000 -0.000002 -0.070693 -3.035250 61.424164 0.006468 4.395136 66.609186 -0.000004 -0.000003 0.000005 -1.235410 -0.119480 68.274284 -0.077306 4.902847 84.501891 0.000003 0.000000 -0.000000 0.883183 -4.613499 79.192970 -0.717790 1.136475 73.255760 -0.000003 -0.000000 0.000002 -3.944550 0.099991 86.764795 -0.029795 0.060128 54.415157 -0.000002 -0.000001 -0.000002 0.000001 -0.000000 -0.000002 -0.000000 0.000001 -0.000000 -0.000000 0.000001 -0.000000 -0.000000 0.000001 -0.000000 -0.000000 0.000001 -0.000000 -0.000000 0.000001 -0.000000 -0.000001 0.000001 -0.000000 -0.000000 0.000001 -0.000000 -0.000000 0.000001 -0.000000 -0.000001 0.000001 -0.000000 0.000002 -0.000000 -0.000001 0.000002 -0.000000 -0.000001 -0.000000 -0.000002 0.000001 
